
<svg width="53" height="53" viewBox="0 0 53 53" fill="none" xmlns="http://www.w3.org/2000/svg">
<path d="M18.6621 44.6121C34.6063 44.6121 43.3256 31.4846 43.3256 20.1008C43.3256 19.728 43.3179 19.3568 43.3011 18.9873C44.9936 17.7713 46.4647 16.2538 47.625 14.5264C46.0718 15.2125 44.4004 15.6743 42.6471 15.8826C44.4367 14.8161 45.8107 13.129 46.4589 11.1177C44.7841 12.1045 42.9294 12.8217 40.9546 13.2089C39.3728 11.5344 37.1208 10.4871 34.6272 10.4871C29.8403 10.4871 25.9584 14.3451 25.9584 19.1007C25.9584 19.7767 26.0345 20.4342 26.1832 21.065C18.9788 20.7047 12.5905 17.2767 8.3151 12.0642C7.57066 13.3373 7.1414 14.8161 7.1414 16.3941C7.1414 19.3829 8.67174 22.0214 10.9989 23.565C9.5767 23.5213 8.24074 23.1333 7.07306 22.4875C7.07179 22.5237 7.07178 22.5589 7.07178 22.5975C7.07178 26.7696 10.0597 30.253 14.0261 31.0423C13.2977 31.2397 12.5313 31.3455 11.7403 31.3455C11.1827 31.3455 10.6393 31.2909 10.1112 31.1901C11.2147 34.6131 14.4148 37.1039 18.2088 37.1735C15.2419 39.4846 11.5046 40.861 7.44268 40.861C6.74386 40.861 6.0535 40.8216 5.375 40.7418C9.21133 43.1856 13.7666 44.6115 18.6626 44.6115" fill="#71859F"/>
</svg>
